<?xml version="1.0" encoding="UTF-8" standalone="no"?>
<!DOCTYPE svg PUBLIC "-//W3C//DTD SVG 1.1//EN" "http://www.w3.org/Graphics/SVG/1.1/DTD/svg11.dtd">
<svg width="100%" height="100%" viewBox="0 0 512 512" version="1.1" xmlns="http://www.w3.org/2000/svg" xmlns:xlink="http://www.w3.org/1999/xlink" xml:space="preserve" xmlns:serif="http://www.serif.com/" style="fill-rule:evenodd;clip-rule:evenodd;stroke-linejoin:round;stroke-miterlimit:2;">
    <g transform="matrix(1.05425,0,0,1.33317,-27.7774,-170.581)">
        <g id="Box">
            <rect x="26.348" y="127.952" width="485.652" height="384.048" style="fill-opacity:0;"/>
        </g>
    </g>
    <g transform="matrix(0.315264,0,0,0.315264,-59.2635,-59.2634)">
        <path d="M1414.66,920.45C1188.7,786.257 815.98,773.919 600.27,839.39C565.629,849.898 528.999,830.342 518.503,795.704C508.006,761.046 527.541,724.44 562.206,713.91C809.825,638.744 1221.46,653.265 1481.59,807.682C1512.75,826.175 1522.97,866.414 1504.5,897.523C1486.01,928.676 1445.74,938.947 1414.66,920.45ZM1407.26,1119.21C1391.41,1144.93 1357.78,1153 1332.09,1137.2C1143.7,1021.41 856.44,987.862 633.567,1055.51C604.664,1064.25 574.138,1047.95 565.36,1019.1C556.65,990.201 572.953,959.73 601.804,950.941C856.406,873.684 1172.91,911.103 1389.28,1044.07C1414.97,1059.89 1423.06,1093.54 1407.26,1119.21ZM1321.49,1310.09C1308.89,1330.74 1281.99,1337.22 1261.41,1324.63C1096.8,1224.02 889.603,1201.3 645.592,1257.03C622.076,1262.42 598.643,1247.69 593.28,1224.18C587.894,1200.67 602.573,1177.23 626.14,1171.87C893.166,1110.82 1122.22,1137.09 1306.99,1250C1327.59,1262.58 1334.08,1289.49 1321.49,1310.09ZM1000,298.998C612.854,298.998 298.999,612.844 298.999,999.99C298.999,1387.17 612.854,1701 1000,1701C1387.16,1701 1701,1387.17 1701,999.99C1701,612.844 1387.16,298.998 1000,298.998Z" style="fill:white;fill-rule:nonzero;"/>
    </g>
</svg>
