<?xml version="1.0" encoding="UTF-8" standalone="no"?>
<!DOCTYPE svg PUBLIC "-//W3C//DTD SVG 1.1//EN" "http://www.w3.org/Graphics/SVG/1.1/DTD/svg11.dtd">
<svg width="100%" height="100%" viewBox="0 0 512 512" version="1.1" xmlns="http://www.w3.org/2000/svg" xmlns:xlink="http://www.w3.org/1999/xlink" xml:space="preserve" xmlns:serif="http://www.serif.com/" style="fill-rule:evenodd;clip-rule:evenodd;stroke-linejoin:round;stroke-miterlimit:2;">
    <g transform="matrix(1,0,0,1,0,1)">
        <g id="Tiktok" transform="matrix(0.8635,0,0,0.8635,62.5199,34.9352)">
            <path d="M448,209.91C403.981,210.015 361.024,196.282 325.23,170.66L325.23,349.38C325.197,438.53 251.83,511.87 162.68,511.87C73.508,511.87 0.13,438.493 0.13,349.32C0.13,260.148 73.508,186.77 162.68,186.77C170.147,186.77 177.604,187.285 185,188.31L185,278.2C177.755,275.921 170.205,274.762 162.61,274.762C121.675,274.762 87.99,308.446 87.99,349.382C87.99,390.317 121.675,424.002 162.61,424.002C203.545,424.002 237.23,390.317 237.23,349.382C237.23,349.381 237.23,349.381 237.23,349.38L237.23,0L325.23,0C325.169,7.431 325.791,14.853 327.09,22.17C333.267,55.169 352.78,84.204 381,102.39C400.872,115.529 424.177,122.535 448,122.53L448,209.91Z" style="fill-rule:nonzero;stroke:rgb(238,238,238);stroke-width:1.16px;"/>
        </g>
    </g>
</svg>
