<?xml version="1.0" encoding="UTF-8" standalone="no"?>
<!DOCTYPE svg PUBLIC "-//W3C//DTD SVG 1.1//EN" "http://www.w3.org/Graphics/SVG/1.1/DTD/svg11.dtd">
<svg width="100%" height="100%" viewBox="0 0 512 512" version="1.1" xmlns="http://www.w3.org/2000/svg" xmlns:xlink="http://www.w3.org/1999/xlink" xml:space="preserve" xmlns:serif="http://www.serif.com/" style="fill-rule:evenodd;clip-rule:evenodd;stroke-linejoin:round;stroke-miterlimit:2;">
    <g id="Youtube" transform="matrix(3.45312,0,0,3.45312,35,35)">
        <path d="M126.72,38.224C126.72,38.224 125.468,29.341 121.632,25.43C116.764,20.294 111.308,20.27 108.808,19.972C90.896,18.667 64.028,18.667 64.028,18.667L63.972,18.667C63.972,18.667 37.104,18.667 19.192,19.972C16.688,20.27 11.236,20.294 6.364,25.43C2.528,29.342 1.28,38.224 1.28,38.224C1.28,38.224 0,48.658 0,59.087L0,68.868C0,79.301 1.28,89.731 1.28,89.731C1.28,89.731 2.528,98.614 6.364,102.525C11.236,107.661 17.632,107.5 20.48,108.036C30.72,109.027 64,109.333 64,109.333C64,109.333 90.896,109.293 108.808,107.988C111.308,107.686 116.764,107.662 121.632,102.526C125.468,98.614 126.72,89.732 126.72,89.732C126.72,89.732 128,79.302 128,68.868L128,59.087C128,48.658 126.72,38.224 126.72,38.224ZM50.784,80.72L50.78,44.501L85.364,62.673L50.784,80.72Z" style="fill:rgb(238,238,238);"/>
    </g>
</svg>
